<?xml version="1.0" encoding="UTF-8" standalone="no"?>
<svg
   xmlns:dc="http://purl.org/dc/elements/1.1/"
   xmlns:cc="http://creativecommons.org/ns#"
   xmlns:rdf="http://www.w3.org/1999/02/22-rdf-syntax-ns#"
   xmlns:svg="http://www.w3.org/2000/svg"
   xmlns="http://www.w3.org/2000/svg"
   viewBox="0 0 1122.52 793.70667"
   height="793.70667"
   width="1122.52"
   xml:space="preserve"
   id="svg2"
   version="1.1"><metadata
     id="metadata8"><rdf:RDF><cc:Work
         rdf:about=""><dc:format>image/svg+xml</dc:format><dc:type
           rdf:resource="http://purl.org/dc/dcmitype/StillImage" /></cc:Work></rdf:RDF></metadata><defs
     id="defs6"><clipPath
       id="clipPath26"
       clipPathUnits="userSpaceOnUse"><path
         id="path24"
         d="M 0,595.28 H 841.89 V 0 H 0 Z" /></clipPath></defs><g
     transform="matrix(1.3333333,0,0,-1.3333333,0,793.70667)"
     id="g10"><g
       transform="translate(815.5723,185.3532)"
       id="g12"><path
         id="path14"
         style="fill:#292929;fill-opacity:1;fill-rule:nonzero;stroke:none"
         d="m 0,0 h -589.191 l 93.129,103.046 -1.177,9.241 -91.952,112.286 H 0 Z" /></g><g
       transform="translate(52.8809,333.0549)"
       id="g16"><path
         id="path18"
         style="fill:#3e82c3;fill-opacity:1;fill-rule:nonzero;stroke:none"
         d="M 0,0 V -87.576 H -26.563 V 49.081 h 20.596 l 71.216,-89.694 v 89.501 h 26.56 V -87.576 H 70.253 Z" /></g><g
       id="g20"><g
         clip-path="url(#clipPath26)"
         id="g22"><g
           transform="translate(242.2759,304.3767)"
           id="g28"><path
             id="path30"
             style="fill:#3e82c3;fill-opacity:1;fill-rule:nonzero;stroke:none"
             d="m 0,0 c -0.644,7.568 -3.434,13.631 -8.373,18.187 -4.94,4.554 -10.939,6.834 -17.997,6.834 -3.463,0 -6.707,-0.611 -9.719,-1.829 -3.017,-1.22 -5.679,-2.92 -7.987,-5.1 C -46.387,15.909 -48.282,13.28 -49.755,10.2 -51.231,7.12 -52.099,3.719 -52.354,0 Z m -26.177,-60.822 c -8.083,0 -15.398,1.381 -21.942,4.137 -6.544,2.759 -12.125,6.511 -16.746,11.26 -4.619,4.747 -8.18,10.266 -10.681,16.554 -2.501,6.285 -3.755,12.894 -3.755,19.823 0,7.186 1.218,13.955 3.659,20.308 2.436,6.351 5.965,11.932 10.586,16.744 4.619,4.812 10.231,8.629 16.842,11.454 6.606,2.819 14.017,4.232 22.23,4.232 8.21,0 15.558,-1.413 22.039,-4.232 6.476,-2.825 11.995,-6.612 16.551,-11.356 4.554,-4.749 8.02,-10.268 10.396,-16.554 2.371,-6.288 3.559,-12.834 3.559,-19.633 0,-1.669 -0.033,-3.27 -0.096,-4.811 -0.065,-1.54 -0.225,-2.826 -0.481,-3.85 h -77.952 c 0.385,-3.978 1.348,-7.506 2.887,-10.587 1.539,-3.08 3.529,-5.711 5.967,-7.892 2.436,-2.182 5.196,-3.849 8.276,-5.002 3.08,-1.155 6.285,-1.734 9.623,-1.734 5.131,0 9.977,1.253 14.534,3.754 4.551,2.501 7.663,5.805 9.333,9.912 l 22.134,-6.157 c -3.722,-7.699 -9.656,-14.023 -17.804,-18.96 -8.15,-4.942 -17.869,-7.41 -29.159,-7.41" /></g><g
           transform="translate(252.749,409.9265)"
           id="g32"><path
             id="path34"
             style="fill:#3e82c3;fill-opacity:1;fill-rule:nonzero;stroke:none"
             d="m 0,0 65.94,-95.157 1.539,-3.463 1.925,3.463 21.558,31.566 h 26.56 l -35.993,-50.62 36.57,-50.236 h -26.56 l -22.328,31.372 -1.732,3.273 -1.539,-3.273 -65.745,-91.498 H -26.368 L 53.62,-114.211 -26.368,0 Z" /></g><path
           id="path36"
           style="fill:#ffffff;fill-opacity:1;fill-rule:nonzero;stroke:none"
           d="m 521.346,346.335 h 25.791 V 245.479 h -25.791 z m 0,39.651 h 25.791 v -25.598 h -25.791 z" /><g
           transform="translate(605.2627,262.4157)"
           id="g38"><path
             id="path40"
             style="fill:#ffffff;fill-opacity:1;fill-rule:nonzero;stroke:none"
             d="m 0,0 c 4.36,0 8.498,0.771 12.413,2.311 3.912,1.539 6.96,3.591 9.143,6.16 2.822,2.18 4.235,4.619 4.235,7.313 v 11.548 c -3.08,1.155 -6.418,2.085 -10.01,2.792 -3.593,0.702 -7.057,1.058 -10.393,1.058 -6.674,0 -12.125,-1.509 -16.361,-4.524 -4.235,-3.014 -6.35,-6.832 -6.35,-11.451 0,-4.365 1.664,-7.989 5.003,-10.877 C -8.985,1.443 -4.88,0 0,0 m -7.315,-18.861 c -4.877,0 -9.431,0.801 -13.667,2.405 -4.233,1.604 -7.889,3.85 -10.969,6.737 -3.08,2.887 -5.487,6.255 -7.218,10.105 -1.732,3.849 -2.6,8.085 -2.6,12.704 0,4.744 1.058,9.142 3.176,13.184 2.117,4.04 5.068,7.474 8.855,10.296 3.784,2.822 8.305,5.035 13.568,6.641 5.261,1.604 11.034,2.406 17.322,2.406 4.492,0 8.885,-0.386 13.186,-1.155 4.298,-0.77 8.115,-1.862 11.453,-3.271 v 5.775 c 0,6.669 -1.895,11.804 -5.679,15.398 -3.787,3.589 -9.401,5.388 -16.841,5.388 -5.389,0 -10.652,-0.962 -15.782,-2.887 -5.135,-1.925 -10.395,-4.749 -15.784,-8.469 l -7.892,16.361 c 12.959,8.594 26.947,12.894 41.961,12.894 14.498,0 25.758,-3.559 33.779,-10.681 8.016,-7.123 12.029,-17.418 12.029,-30.891 V 12.704 c 0,-2.694 0.481,-4.619 1.443,-5.774 0.963,-1.156 2.532,-1.797 4.717,-1.925 v -21.942 c -4.365,-0.897 -8.15,-1.348 -11.358,-1.348 -4.877,0 -8.631,1.093 -11.257,3.272 -2.632,2.181 -4.269,5.069 -4.91,8.662 L 29.641,-0.77 C 25.146,-6.672 19.693,-11.163 13.28,-14.243 6.861,-17.323 0,-18.861 -7.315,-18.861" /></g><g
           transform="translate(729.0225,265.4958)"
           id="g42"><path
             id="path44"
             style="fill:#ffffff;fill-opacity:1;fill-rule:nonzero;stroke:none"
             d="m 0,0 c 2.82,0 5.517,0.448 8.083,1.349 2.566,0.894 4.939,2.117 7.122,3.656 2.181,1.539 4.106,3.336 5.774,5.388 1.667,2.052 2.951,4.236 3.85,6.546 v 24.06 c -2.31,5.899 -5.937,10.648 -10.874,14.242 -4.942,3.592 -10.105,5.388 -15.496,5.388 -3.978,0 -7.571,-0.864 -10.776,-2.598 -3.211,-1.732 -5.968,-4.04 -8.279,-6.927 -2.307,-2.888 -4.075,-6.193 -5.293,-9.915 -1.22,-3.722 -1.827,-7.571 -1.827,-11.548 0,-4.108 0.702,-7.957 2.115,-11.549 1.412,-3.594 3.369,-6.737 5.872,-9.431 2.501,-2.694 5.419,-4.811 8.757,-6.35 C -7.636,0.77 -3.979,0 0,0 m -8.661,-20.594 c -6.804,0 -12.962,1.346 -18.478,4.04 -5.518,2.698 -10.298,6.384 -14.34,11.068 -4.041,4.684 -7.153,10.105 -9.334,16.265 -2.185,6.16 -3.273,12.703 -3.273,19.633 0,7.314 1.155,14.113 3.464,20.401 2.31,6.285 5.517,11.804 9.624,16.553 4.104,4.747 9.047,8.468 14.821,11.165 5.775,2.694 12.125,4.04 19.055,4.04 7.827,0 14.691,-1.764 20.596,-5.293 5.899,-3.528 10.779,-8.245 14.629,-14.145 V 80.839 H 50.62 v -96.044 c 0,-7.441 -1.413,-14.115 -4.232,-20.017 -2.825,-5.902 -6.707,-10.905 -11.647,-15.014 -4.939,-4.106 -10.845,-7.248 -17.706,-9.431 -6.867,-2.181 -14.341,-3.271 -22.426,-3.271 -11.037,0 -20.304,1.827 -27.81,5.484 -7.507,3.658 -13.955,8.824 -19.346,15.495 l 14.053,13.666 c 3.848,-4.746 8.691,-8.471 14.53,-11.165 5.837,-2.693 12.03,-4.042 18.573,-4.042 3.978,0 7.797,0.549 11.453,1.637 3.658,1.092 6.898,2.792 9.72,5.099 2.822,2.311 5.034,5.264 6.641,8.855 1.604,3.594 2.406,7.829 2.406,12.704 v 12.704 c -3.338,-5.774 -8.019,-10.235 -14.05,-13.378 -6.035,-3.145 -12.51,-4.715 -19.44,-4.715" /></g><g
           transform="translate(475.9658,314.0002)"
           id="g46"><path
             id="path48"
             style="fill:#ffffff;fill-opacity:1;fill-rule:nonzero;stroke:none"
             d="m 0,0 c 0,6.544 -0.896,12.574 -2.693,18.092 -1.798,5.516 -4.427,10.265 -7.893,14.243 -3.464,3.977 -7.731,7.055 -12.799,9.24 -5.07,2.18 -10.811,3.271 -17.224,3.271 h -23.098 v -90.078 h 23.098 c 6.543,0 12.347,1.156 17.418,3.464 5.067,2.31 9.302,5.486 12.703,9.528 3.398,4.043 5.997,8.82 7.795,14.338 C -0.896,-12.385 0,-6.418 0,0 M -90.27,-68.521 V 68.136 h 49.661 c 11.162,0 20.946,-1.8 29.351,-5.388 C -2.856,59.154 4.171,54.276 9.817,48.119 15.464,41.958 19.696,34.741 22.521,26.465 25.343,18.187 26.757,9.366 26.757,0 c 0,-10.393 -1.574,-19.796 -4.717,-28.197 -3.145,-8.406 -7.669,-15.591 -13.568,-21.558 -5.906,-5.967 -12.993,-10.586 -21.271,-13.86 -8.275,-3.27 -17.548,-4.906 -27.81,-4.906 z" /></g></g></g></g></svg>